<mxfile host="app.diagrams.net" agent="Mozilla/5.0 (Windows NT 10.0; Win64; x64) AppleWebKit/537.36 (KHTML, like Gecko) Chrome/141.0.0.0 Safari/537.36" version="28.2.8">
  <diagram name="СППР" id="GQyOlIBhTiQBT417ftG8">
    <mxGraphModel dx="1188" dy="648" grid="1" gridSize="10" guides="1" tooltips="1" connect="1" arrows="1" fold="1" page="1" pageScale="1" pageWidth="827" pageHeight="1169" math="0" shadow="0">
      <root>
        <mxCell id="0" />
        <mxCell id="1" parent="0" />
        <mxCell id="WvmWL6PNuyI18f7NwwsE-8" value="" style="rounded=0;whiteSpace=wrap;html=1;glass=0;shadow=0;strokeWidth=2;dashed=1;fillColor=none;" vertex="1" parent="1">
          <mxGeometry x="160" y="40" width="480" height="280" as="geometry" />
        </mxCell>
        <mxCell id="umxKLdE2hsiXXnnbnk1B-10" style="edgeStyle=orthogonalEdgeStyle;rounded=0;orthogonalLoop=1;jettySize=auto;html=1;entryX=0.5;entryY=0;entryDx=0;entryDy=0;startArrow=classic;startFill=1;endSize=7;" edge="1" parent="1" source="umxKLdE2hsiXXnnbnk1B-1" target="umxKLdE2hsiXXnnbnk1B-6">
          <mxGeometry relative="1" as="geometry" />
        </mxCell>
        <mxCell id="umxKLdE2hsiXXnnbnk1B-1" value="База данных" style="shape=cylinder3;whiteSpace=wrap;html=1;boundedLbl=1;backgroundOutline=1;size=15;strokeWidth=2;fontFamily=Helvetica;fontStyle=1" vertex="1" parent="1">
          <mxGeometry x="240" y="80" width="80" height="80" as="geometry" />
        </mxCell>
        <mxCell id="umxKLdE2hsiXXnnbnk1B-9" style="edgeStyle=orthogonalEdgeStyle;rounded=0;orthogonalLoop=1;jettySize=auto;html=1;entryX=0.5;entryY=0;entryDx=0;entryDy=0;strokeWidth=2;" edge="1" parent="1" source="umxKLdE2hsiXXnnbnk1B-2" target="umxKLdE2hsiXXnnbnk1B-7">
          <mxGeometry relative="1" as="geometry" />
        </mxCell>
        <mxCell id="umxKLdE2hsiXXnnbnk1B-2" value="База знаний" style="shape=cylinder3;whiteSpace=wrap;html=1;boundedLbl=1;backgroundOutline=1;size=15;strokeWidth=2;fontStyle=1" vertex="1" parent="1">
          <mxGeometry x="480" y="80" width="80" height="80" as="geometry" />
        </mxCell>
        <mxCell id="umxKLdE2hsiXXnnbnk1B-3" value="Эксперт" style="shape=umlActor;verticalLabelPosition=bottom;verticalAlign=top;html=1;outlineConnect=0;strokeWidth=2;fontStyle=1" vertex="1" parent="1">
          <mxGeometry x="760" y="80" width="40" height="80" as="geometry" />
        </mxCell>
        <mxCell id="umxKLdE2hsiXXnnbnk1B-4" style="edgeStyle=orthogonalEdgeStyle;rounded=0;orthogonalLoop=1;jettySize=auto;html=1;entryX=1;entryY=0.5;entryDx=0;entryDy=0;entryPerimeter=0;strokeWidth=2;" edge="1" parent="1" source="umxKLdE2hsiXXnnbnk1B-3" target="umxKLdE2hsiXXnnbnk1B-2">
          <mxGeometry relative="1" as="geometry" />
        </mxCell>
        <mxCell id="umxKLdE2hsiXXnnbnk1B-6" value="Модуль авторизации" style="swimlane;whiteSpace=wrap;html=1;" vertex="1" parent="1">
          <mxGeometry x="180" y="200" width="200" height="80" as="geometry">
            <mxRectangle x="180" y="200" width="140" height="30" as="alternateBounds" />
          </mxGeometry>
        </mxCell>
        <mxCell id="WvmWL6PNuyI18f7NwwsE-3" value="&lt;span style=&quot;background-color: transparent; color: light-dark(rgb(0, 0, 0), rgb(255, 255, 255));&quot;&gt;- Выдача доступа&lt;/span&gt;" style="text;html=1;whiteSpace=wrap;strokeColor=none;fillColor=none;align=left;verticalAlign=top;rounded=0;fontStyle=1" vertex="1" parent="umxKLdE2hsiXXnnbnk1B-6">
          <mxGeometry y="30" width="200" height="50" as="geometry" />
        </mxCell>
        <mxCell id="umxKLdE2hsiXXnnbnk1B-7" value="Модуль оценки показателей" style="swimlane;whiteSpace=wrap;html=1;" vertex="1" parent="1">
          <mxGeometry x="420" y="200" width="200" height="80" as="geometry" />
        </mxCell>
        <mxCell id="WvmWL6PNuyI18f7NwwsE-4" value="&lt;span style=&quot;background-color: transparent; color: light-dark(rgb(0, 0, 0), rgb(255, 255, 255));&quot;&gt;- Оценка текущих показаний&lt;/span&gt;&lt;div&gt;&lt;span style=&quot;background-color: transparent; color: light-dark(rgb(0, 0, 0), rgb(255, 255, 255));&quot;&gt;- Прогнозирование показаний&lt;/span&gt;&lt;/div&gt;" style="text;html=1;whiteSpace=wrap;strokeColor=none;fillColor=none;align=left;verticalAlign=top;rounded=0;fontStyle=1" vertex="1" parent="umxKLdE2hsiXXnnbnk1B-7">
          <mxGeometry y="30" width="200" height="50" as="geometry" />
        </mxCell>
        <mxCell id="umxKLdE2hsiXXnnbnk1B-8" style="edgeStyle=orthogonalEdgeStyle;rounded=0;orthogonalLoop=1;jettySize=auto;html=1;strokeWidth=2;" edge="1" parent="1" source="umxKLdE2hsiXXnnbnk1B-2">
          <mxGeometry relative="1" as="geometry">
            <mxPoint x="360" y="200" as="targetPoint" />
            <Array as="points">
              <mxPoint x="360" y="110" />
            </Array>
          </mxGeometry>
        </mxCell>
        <mxCell id="umxKLdE2hsiXXnnbnk1B-11" style="edgeStyle=orthogonalEdgeStyle;rounded=0;orthogonalLoop=1;jettySize=auto;html=1;entryX=0.1;entryY=0;entryDx=0;entryDy=0;entryPerimeter=0;startArrow=classic;startFill=1;strokeWidth=2;" edge="1" parent="1" source="umxKLdE2hsiXXnnbnk1B-1" target="umxKLdE2hsiXXnnbnk1B-7">
          <mxGeometry relative="1" as="geometry">
            <Array as="points">
              <mxPoint x="440" y="130" />
            </Array>
          </mxGeometry>
        </mxCell>
        <mxCell id="WvmWL6PNuyI18f7NwwsE-17" style="edgeStyle=orthogonalEdgeStyle;rounded=0;orthogonalLoop=1;jettySize=auto;html=1;entryX=0.5;entryY=0;entryDx=0;entryDy=0;strokeWidth=2;" edge="1" parent="1" source="WvmWL6PNuyI18f7NwwsE-6" target="WvmWL6PNuyI18f7NwwsE-12">
          <mxGeometry relative="1" as="geometry">
            <Array as="points">
              <mxPoint x="560" y="410" />
            </Array>
          </mxGeometry>
        </mxCell>
        <mxCell id="WvmWL6PNuyI18f7NwwsE-25" style="edgeStyle=orthogonalEdgeStyle;rounded=0;orthogonalLoop=1;jettySize=auto;html=1;entryX=0.448;entryY=1.01;entryDx=0;entryDy=0;entryPerimeter=0;jumpSize=7;strokeWidth=2;" edge="1" parent="1" source="WvmWL6PNuyI18f7NwwsE-6" target="WvmWL6PNuyI18f7NwwsE-4">
          <mxGeometry relative="1" as="geometry">
            <Array as="points">
              <mxPoint x="510" y="370" />
            </Array>
          </mxGeometry>
        </mxCell>
        <mxCell id="WvmWL6PNuyI18f7NwwsE-6" value="ЛПР" style="shape=umlActor;verticalLabelPosition=bottom;verticalAlign=top;html=1;outlineConnect=0;strokeWidth=2;fontStyle=1" vertex="1" parent="1">
          <mxGeometry x="380" y="360" width="40" height="80" as="geometry" />
        </mxCell>
        <mxCell id="WvmWL6PNuyI18f7NwwsE-16" style="edgeStyle=orthogonalEdgeStyle;rounded=0;orthogonalLoop=1;jettySize=auto;html=1;exitX=0.5;exitY=0;exitDx=0;exitDy=0;strokeWidth=2;" edge="1" parent="1" source="WvmWL6PNuyI18f7NwwsE-9" target="WvmWL6PNuyI18f7NwwsE-6">
          <mxGeometry relative="1" as="geometry">
            <Array as="points">
              <mxPoint x="480" y="430" />
            </Array>
          </mxGeometry>
        </mxCell>
        <mxCell id="WvmWL6PNuyI18f7NwwsE-9" value="Анализ" style="rounded=0;whiteSpace=wrap;html=1;strokeWidth=2;fontStyle=1" vertex="1" parent="1">
          <mxGeometry x="440" y="480" width="80" height="40" as="geometry" />
        </mxCell>
        <mxCell id="WvmWL6PNuyI18f7NwwsE-12" value="Принятие решений" style="rounded=0;whiteSpace=wrap;html=1;strokeWidth=2;fontStyle=1" vertex="1" parent="1">
          <mxGeometry x="520" y="480" width="80" height="40" as="geometry" />
        </mxCell>
        <mxCell id="WvmWL6PNuyI18f7NwwsE-19" style="edgeStyle=orthogonalEdgeStyle;rounded=0;orthogonalLoop=1;jettySize=auto;html=1;entryX=1;entryY=0.5;entryDx=0;entryDy=0;exitX=1;exitY=0.5;exitDx=0;exitDy=0;strokeWidth=2;" edge="1" parent="1" source="WvmWL6PNuyI18f7NwwsE-13" target="WvmWL6PNuyI18f7NwwsE-18">
          <mxGeometry relative="1" as="geometry">
            <Array as="points">
              <mxPoint x="800" y="500" />
              <mxPoint x="800" y="580" />
            </Array>
          </mxGeometry>
        </mxCell>
        <mxCell id="WvmWL6PNuyI18f7NwwsE-13" value="Выбор управляющего воздействия" style="rounded=0;whiteSpace=wrap;html=1;strokeWidth=2;fontStyle=1" vertex="1" parent="1">
          <mxGeometry x="600" y="480" width="160" height="40" as="geometry" />
        </mxCell>
        <mxCell id="WvmWL6PNuyI18f7NwwsE-18" value="Решение" style="rounded=0;whiteSpace=wrap;html=1;strokeWidth=2;fontStyle=1" vertex="1" parent="1">
          <mxGeometry x="480" y="560" width="240" height="40" as="geometry" />
        </mxCell>
        <mxCell id="WvmWL6PNuyI18f7NwwsE-21" style="edgeStyle=orthogonalEdgeStyle;rounded=0;orthogonalLoop=1;jettySize=auto;html=1;entryX=0;entryY=0.5;entryDx=0;entryDy=0;strokeWidth=2;" edge="1" parent="1" source="WvmWL6PNuyI18f7NwwsE-20" target="WvmWL6PNuyI18f7NwwsE-9">
          <mxGeometry relative="1" as="geometry" />
        </mxCell>
        <mxCell id="WvmWL6PNuyI18f7NwwsE-20" value="Внешний источник" style="rounded=0;whiteSpace=wrap;html=1;strokeWidth=2;fontStyle=1" vertex="1" parent="1">
          <mxGeometry x="80" y="480" width="120" height="40" as="geometry" />
        </mxCell>
        <mxCell id="WvmWL6PNuyI18f7NwwsE-23" style="edgeStyle=orthogonalEdgeStyle;rounded=0;orthogonalLoop=1;jettySize=auto;html=1;strokeWidth=2;" edge="1" parent="1" source="WvmWL6PNuyI18f7NwwsE-3" target="WvmWL6PNuyI18f7NwwsE-6">
          <mxGeometry relative="1" as="geometry">
            <Array as="points">
              <mxPoint x="280" y="380" />
            </Array>
          </mxGeometry>
        </mxCell>
        <mxCell id="WvmWL6PNuyI18f7NwwsE-24" style="edgeStyle=orthogonalEdgeStyle;rounded=0;orthogonalLoop=1;jettySize=auto;html=1;jumpSize=7;strokeWidth=2;" edge="1" parent="1" source="WvmWL6PNuyI18f7NwwsE-4" target="WvmWL6PNuyI18f7NwwsE-6">
          <mxGeometry relative="1" as="geometry">
            <Array as="points">
              <mxPoint x="530" y="390" />
            </Array>
          </mxGeometry>
        </mxCell>
        <mxCell id="WvmWL6PNuyI18f7NwwsE-27" style="edgeStyle=orthogonalEdgeStyle;rounded=0;orthogonalLoop=1;jettySize=auto;html=1;entryX=0;entryY=0.5;entryDx=0;entryDy=0;strokeWidth=2;" edge="1" parent="1" source="WvmWL6PNuyI18f7NwwsE-26" target="WvmWL6PNuyI18f7NwwsE-18">
          <mxGeometry relative="1" as="geometry" />
        </mxCell>
        <mxCell id="WvmWL6PNuyI18f7NwwsE-26" value="Данные&amp;nbsp;&lt;div&gt;мониторинга&lt;/div&gt;" style="rounded=0;whiteSpace=wrap;html=1;strokeWidth=2;fontStyle=1" vertex="1" parent="1">
          <mxGeometry x="80" y="560" width="120" height="40" as="geometry" />
        </mxCell>
        <mxCell id="WvmWL6PNuyI18f7NwwsE-28" style="edgeStyle=orthogonalEdgeStyle;rounded=0;orthogonalLoop=1;jettySize=auto;html=1;entryX=0;entryY=0.5;entryDx=0;entryDy=0;entryPerimeter=0;strokeWidth=2;" edge="1" parent="1" source="WvmWL6PNuyI18f7NwwsE-26" target="umxKLdE2hsiXXnnbnk1B-1">
          <mxGeometry relative="1" as="geometry">
            <Array as="points">
              <mxPoint x="40" y="580" />
              <mxPoint x="40" y="120" />
            </Array>
          </mxGeometry>
        </mxCell>
        <mxCell id="WvmWL6PNuyI18f7NwwsE-29" style="edgeStyle=orthogonalEdgeStyle;rounded=0;orthogonalLoop=1;jettySize=auto;html=1;entryX=0.5;entryY=0;entryDx=0;entryDy=0;entryPerimeter=0;strokeWidth=2;" edge="1" parent="1" source="WvmWL6PNuyI18f7NwwsE-20" target="umxKLdE2hsiXXnnbnk1B-2">
          <mxGeometry relative="1" as="geometry">
            <Array as="points">
              <mxPoint x="120" y="60" />
              <mxPoint x="520" y="60" />
            </Array>
          </mxGeometry>
        </mxCell>
        <mxCell id="WvmWL6PNuyI18f7NwwsE-30" value="СППР" style="text;html=1;whiteSpace=wrap;strokeColor=none;fillColor=none;align=center;verticalAlign=middle;rounded=0;fontStyle=1" vertex="1" parent="1">
          <mxGeometry x="580" y="290" width="60" height="30" as="geometry" />
        </mxCell>
      </root>
    </mxGraphModel>
  </diagram>
</mxfile>
